<?xml version="1.0" standalone="no"?><!DOCTYPE svg PUBLIC "-//W3C//DTD SVG 1.1//EN" "http://www.w3.org/Graphics/SVG/1.1/DTD/svg11.dtd"><svg t="1618717670990" class="icon" viewBox="0 0 1024 1024" version="1.1" xmlns="http://www.w3.org/2000/svg" p-id="2005" xmlns:xlink="http://www.w3.org/1999/xlink" width="200" height="200"><defs><style type="text/css"></style></defs><path d="M671.11 963.95c-19.17 0-34.71-14.8-34.71-33.05V525.87c0-12.3 4.11-24.21 11.58-33.54 9.47-11.83 23.47-18.61 38.42-18.61h61.37c5.03 0 9.41-7.55 10.24-9.07 6.33-11.57 7.69-30.16-1.97-43.3l-191.52-260.6c-14.55-19.8-33.44-30.71-53.18-30.71s-38.63 10.9-53.18 30.71l-191.52 260.6c-9.65 13.14-8.3 31.73-1.97 43.3 0.83 1.51 5.21 9.07 10.24 9.07h61.37c14.95 0 28.95 6.78 38.42 18.61 7.47 9.33 11.58 21.24 11.58 33.54V930.9c0 18.25-15.54 33.05-34.71 33.05s-34.71-14.8-34.71-33.05V539.82H274.9c-29.68 0-56.53-16.69-71.82-44.64-19.26-35.21-16.58-80.11 6.66-111.73l191.52-260.6c27.51-37.44 67.63-58.91 110.06-58.91s82.55 21.47 110.06 58.91l191.52 260.6c23.24 31.62 25.92 76.52 6.66 111.73-15.29 27.95-42.13 44.64-71.82 44.64h-41.95V930.9c0.03 18.25-15.51 33.05-34.68 33.05z" fill="#383838" p-id="2006"></path></svg>